# xmcd
#
# Track frame offsets:
#   150
#   15865
#   29110
#   45705
#   57960
#   70246
#   89375
#   102607
#   114314
#   126615
#   140292
#   152253
#   167138
#   177624
#
# Disc length: 2569 seconds
#
# Revision: 0
# Processed by: cddbd v1.5.2PL0 Copyright (c) Steve Scherf et al.
# Submitted via: uFREEDB ActiveX Control 1.5
#
DISCID=c10a070e
DTITLE=Vozes da Terra - A Terra Canta
DYEAR=2000
DGENRE=Country
TTITLE0=musica 1
TTITLE1=musica 2
TTITLE2=musica 3
TTITLE3=musica 4
TTITLE4=musica 5
TTITLE5=musica 6
TTITLE6=musica 7
TTITLE7=musica 8
TTITLE8=musica 9
TTITLE9=musica 10
TTITLE10=musica 11
TTITLE11=musica 12
TTITLE12=musica 13
TTITLE13=musica 14
EXTD=
EXTT0=
EXTT1=
EXTT2=
EXTT3=
EXTT4=
EXTT5=
EXTT6=
EXTT7=
EXTT8=
EXTT9=
EXTT10=
EXTT11=
EXTT12=
EXTT13=
PLAYORDER=
